<svg width="600" height="400" xmlns="http://www.w3.org/2000/svg" xmlns:undefined="http://www.inkscape.org/namespaces/inkscape">

 <metadata id="metadata7">image/svg+xml</metadata>
 <g>
  <title>Layer 1</title>
  <g id="layer1"  >
   <g id="g5142">
    <path stroke-width="10" fill="#000000" d="m373,43.2344c-9.15391,0 -16.65625,7.5023 -16.65625,16.6562l0,37.8438c0,4.3415 1.71768,8.3069 4.46875,11.2812c-2.76023,2.9762 -4.46875,6.9315 -4.46875,11.2813l0,37.8125c0,2.3716 0.50081,4.6362 1.40625,6.6875l-56.90625,0c-0.0422,-0.0004 -0.0827,0 -0.125,0l-28.9375,0c-9.15391,0 -16.65625,7.5335 -16.65625,16.6875l0,37.8125c0,4.3497 1.70852,8.3289 4.46875,11.3125c-2.76023,2.9835 -4.46875,6.9315 -4.46875,11.2812l0,37.8125c0,9.1539 7.50234,16.6875 16.65625,16.6875l28.9375,0c0.0423,0 0.0827,0.0003 0.125,0l56.59375,0c-0.70153,1.8356 -1.09375,3.8021 -1.09375,5.875l0,37.8438c0,9.1539 7.50234,16.6562 16.65625,16.6562l28.9375,0c9.15391,0 16.6875,-7.5023 16.6875,-16.6562l0,-37.8438c0,-4.3384 -1.71385,-8.2764 -4.46875,-11.25c2.76431,-2.9829 4.46875,-6.9657 4.46875,-11.3125l0,-37.8125c0,-9.1539 -7.53359,-16.6875 -16.6875,-16.6875l-28.9375,0c-9.15391,0 -16.65625,7.5336 -16.65625,16.6875l0,37.8125c0,2.3717 0.50081,4.6362 1.40625,6.6875l-41.78125,0c0.90544,-2.0513 1.40625,-4.3158 1.40625,-6.6875l0,-37.8125c0,-4.3497 -1.70852,-8.2977 -4.46875,-11.2812c2.76023,-2.9836 4.46875,-6.9628 4.46875,-11.3125l0,-37.8125c0,-2.3781 -0.52745,-4.6319 -1.4375,-6.6875l86,0c9.15391,0 16.6875,-7.5336 16.6875,-16.6875l0,-37.8125c0,-4.3468 -1.70444,-8.3058 -4.46875,-11.2813c2.7549,-2.9736 4.46875,-6.9428 4.46875,-11.2812l0,-37.8438c0,-9.1539 -7.53359,-16.6562 -16.6875,-16.6562l-28.9375,0zm0,10l28.9375,0c3.78689,0 6.6875,2.8693 6.6875,6.6562l0,37.8438c0,2.8401 -1.61786,5.1717 -4.03125,6.1562c-7.68259,0 -23.07591,0 -34.21875,0c-2.4046,-0.9845 -4.03125,-3.3161 -4.03125,-6.1562l0,-37.8438c0,-3.7869 2.86936,-6.6562 6.65625,-6.6562zm-2.65625,60.9375c10.65135,0 21.0594,0 34.28125,0c2.39803,0.991 4,3.2958 4,6.125l0,37.8125c0,3.7868 -2.90061,6.6875 -6.6875,6.6875l-28.9375,0c-3.78689,0 -6.65625,-2.9007 -6.65625,-6.6875l0,-37.8125c0,-2.8296 1.61024,-5.1343 4,-6.125zm-98.5625,60.625l28.9375,0c3.78689,0 6.65625,2.9006 6.65625,6.6875l0,37.8125c0,2.815 -1.59941,5.1481 -3.96875,6.1562c-12.60602,0 -22.20604,0 -34.3125,0c-2.36934,-1.0081 -3.96875,-3.3412 -3.96875,-6.1562l0,-37.8125c0,-3.7869 2.86936,-6.6875 6.65625,-6.6875zm101.21875,60.4062l28.9375,0c3.78689,0 6.6875,2.9006 6.6875,6.6875l0,37.8125c0,2.8139 -1.59212,5.1475 -3.96875,6.1563c-4.97179,0 -22.88367,0 -34.34375,0c-2.36934,-1.0081 -3.96875,-3.3413 -3.96875,-6.1563l0,-37.8125c0,-3.7869 2.86936,-6.6875 6.65625,-6.6875zm-103.875,0.5625c11.73997,0 21.26394,0 34.25,0c2.38358,1.0022 4,3.2999 4,6.125l0,37.8125c0,3.7869 -2.86936,6.6875 -6.65625,6.6875l-28.9375,0c-3.78689,0 -6.65625,-2.9006 -6.65625,-6.6875l0,-37.8125c0,-2.8251 1.61642,-5.1228 4,-6.125zm135.5,60.4063c2.3912,0.9938 4,3.2694 4,6.0937l0,37.8438c0,3.7869 -2.90061,6.6562 -6.6875,6.6562l-28.9375,0c-3.78689,0 -6.65625,-2.8693 -6.65625,-6.6562l0,-37.8438c0,-2.6035 1.35931,-4.7731 3.4375,-5.875c4.78043,0 23.58929,-0.2187 34.84375,-0.2187z" id="rect2816-3-4-9" />
    <path fill="#000000" d="m459.8125,233.7656c-9.10413,0.035 -16.55935,7.5208 -16.59375,16.625l0,8.3125l0,4.5313l0,24.9375l0,60.0625l24.9375,0l0,-60.0625l14.71875,0l0,-24.9375l-14.71875,0l0,-4.5313l14.71875,0l0,-24.9375l-14.71875,0l-8.34375,0z" id="rect3770-1-1-5-8-3-8-7-4"/>
    <path fill="#000000" d="m512.59375,263.2344c-9.10413,0.035 -16.55935,7.5208 -16.59375,16.625l0,8.3125l20.71875,35.125l-20.71875,0l0,24.9375l33.28125,0c9.1041,-0.035 16.55975,-7.5208 16.59375,-16.625l0,-8.3125l-20.6875,-35.125l20.6875,0l0,-24.9375l-33.28125,0z" id="rect3770-1-1-5-2-1-1-3-4-7-7"/>
    <path fill="#000000" d="m159.28125,173.3594c-9.1041,0.035 -16.55975,7.5208 -16.59375,16.625l0,12.8437l-12.46875,0l0,24.9375l12.46875,0l0,60.0938l24.9375,0l0,-60.0938l12.46875,0l0,-24.9375l-12.46875,0l0,-29.4687l-8.34375,0z" id="rect3770-1-6-1-8-0-7-8"/>
    <path fill="#000000" d="m214.46875,202.8281c-9.10413,0.035 -16.55935,7.5208 -16.59375,16.625l0,8.3125l0,60.0938l24.9375,0l0,-60.0938l14.71875,0l0,-24.9375l-23.0625,0z" id="rect3770-1-1-1-1-0-7-3-3"/>
    <path fill="#000000" d="m70.71875,173.3594c-9.10413,0.035 -16.55935,7.5208 -16.59375,16.625l0,97.875l17.15625,0l7.75,0l25.53125,0c9.1041,-0.035 16.55975,-7.5208 16.59375,-16.625l0,-8.3125l0,-44.2188l0,-15.875l-42.125,0l0,-29.4687l-8.3125,0zm8.3125,54.4062l17.1875,0l0,35.1563l-17.1875,0l0,-35.1563z" id="rect3770-7-4-8-63-3-5"/>
   </g>
  </g>
 </g>
</svg>
